<svg width="24" height="24" viewBox="0 0 24 24" fill="none" xmlns="http://www.w3.org/2000/svg">
<path d="M21 21.5C20.87 21.5 20.74 21.45 20.65 21.35L2.65 3.34999C2.45 3.14999 2.45 2.83999 2.65 2.63999C2.85 2.43999 3.16 2.43999 3.36 2.63999L21.36 20.64C21.56 20.84 21.56 21.15 21.36 21.35C21.26 21.45 21.13 21.5 21 21.5Z" fill="white"/>
<path d="M3 21.5C2.87 21.5 2.74 21.45 2.65 21.35C2.45 21.15 2.45 20.84 2.65 20.64L20.65 2.63999C20.85 2.43999 21.16 2.43999 21.36 2.63999C21.56 2.83999 21.56 3.14999 21.36 3.34999L3.36 21.35C3.26 21.45 3.13 21.5 3 21.5Z" fill="white"/>
</svg>
