<svg width="12" height="10" viewBox="0 0 12 10" fill="none" xmlns="http://www.w3.org/2000/svg">
<g clip-path="url(#clip0_178_261)">
<path d="M10.1579 1.18541C9.38014 0.827624 8.55917 0.572527 7.71562 0.426532C7.70805 0.425666 7.70039 0.426951 7.69351 0.430239C7.68664 0.433527 7.68083 0.438686 7.67675 0.445124C7.56484 0.648301 7.4633 0.857019 7.37252 1.07048C6.46341 0.931893 5.53854 0.931893 4.62942 1.07048C4.53827 0.856326 4.43501 0.647537 4.32013 0.445124C4.31605 0.438686 4.31024 0.433527 4.30336 0.430239C4.29649 0.426951 4.28883 0.425666 4.28125 0.426532C3.43783 0.57301 2.61692 0.828088 1.839 1.18541C1.8354 1.18637 1.83205 1.18807 1.82914 1.1904C1.82623 1.19273 1.82383 1.19563 1.8221 1.19893C0.267171 3.52287 -0.158745 5.78935 0.0491424 8.03216C0.0513769 8.04337 0.0573328 8.0535 0.0660438 8.06089C0.971156 8.73364 1.98383 9.24798 3.06097 9.58202C3.06855 9.58435 3.07667 9.5843 3.08422 9.58188C3.09177 9.57946 3.0984 9.57479 3.10323 9.5685C3.33584 9.25034 3.54162 8.91341 3.71844 8.56118C3.7207 8.5563 3.72196 8.55102 3.72216 8.54565C3.72236 8.54028 3.7215 8.53493 3.71961 8.52989C3.71772 8.52486 3.71485 8.52025 3.71117 8.51634C3.70749 8.51243 3.70306 8.50928 3.69816 8.50709C3.37452 8.38385 3.06139 8.23463 2.76182 8.06089C2.75659 8.05753 2.75228 8.0529 2.7493 8.04744C2.74632 8.04197 2.74476 8.03585 2.74476 8.02963C2.74476 8.0234 2.74632 8.01728 2.7493 8.01182C2.75228 8.00636 2.75659 8.00173 2.76182 7.99836C2.82435 7.95104 2.88689 7.90202 2.94773 7.85132C2.95364 7.84791 2.96035 7.84611 2.96717 7.84611C2.97399 7.84611 2.9807 7.84791 2.98661 7.85132C3.93014 8.29402 4.95959 8.52352 6.00182 8.52352C7.04405 8.52352 8.07349 8.29402 9.01703 7.85132C9.02299 7.84806 9.02967 7.84636 9.03647 7.84636C9.04326 7.84636 9.04994 7.84806 9.0559 7.85132C9.11675 7.90033 9.17928 7.95104 9.24182 7.99836C9.24705 8.00173 9.25135 8.00636 9.25434 8.01182C9.25732 8.01728 9.25888 8.0234 9.25888 8.02963C9.25888 8.03585 9.25732 8.04197 9.25434 8.04744C9.25135 8.0529 9.24705 8.05753 9.24182 8.06089C8.94312 8.23628 8.62984 8.38557 8.30548 8.50709C8.30057 8.50928 8.29615 8.51243 8.29247 8.51634C8.28878 8.52025 8.28591 8.52486 8.28403 8.52989C8.28214 8.53493 8.28127 8.54028 8.28147 8.54565C8.28167 8.55102 8.28294 8.5563 8.2852 8.56118C8.46277 8.906 8.66498 9.23756 8.89027 9.55329C8.89469 9.56008 8.90121 9.56525 8.90884 9.56799C8.91647 9.57074 8.92478 9.57092 8.93252 9.5685C10.0117 9.23575 11.0263 8.72133 11.9325 8.04737C11.9373 8.04425 11.9411 8.03998 11.9438 8.03496C11.9465 8.02993 11.9478 8.02432 11.9477 8.01864C12.1975 5.60606 11.5679 3.1844 10.1748 1.19893C10.173 1.19563 10.1706 1.19273 10.1677 1.1904C10.1648 1.18807 10.1615 1.18637 10.1579 1.18541ZM4.01083 6.66484C3.41928 6.66484 2.93252 6.1223 2.93252 5.45639C2.93252 4.79047 3.40914 4.24625 4.01083 4.24625C4.61252 4.24625 5.09759 4.79385 5.08914 5.45639C5.08069 6.11892 4.61083 6.66484 4.01083 6.66484ZM7.99787 6.66484C7.40632 6.66484 6.91956 6.1223 6.91956 5.45639C6.91956 4.79047 7.39618 4.24625 7.99787 4.24625C8.59956 4.24625 9.08463 4.79385 9.07618 5.45639C9.06773 6.11892 8.60294 6.66484 7.99787 6.66484Z" fill="white"/>
</g>
<defs>
<clipPath id="clip0_178_261">
<rect width="12" height="9.14704" fill="white" transform="translate(0 0.426514)"/>
</clipPath>
</defs>
</svg>
