<svg width="24" height="19" viewBox="0 0 24 19" fill="none" xmlns="http://www.w3.org/2000/svg">
<g clip-path="url(#clip0_97_2800)">
<path d="M20.3155 1.51772C18.76 0.802161 17.1181 0.291965 15.431 -2.40709e-05C15.4159 -0.00175563 15.4005 0.00081396 15.3868 0.00739026C15.373 0.0139666 15.3614 0.0242835 15.3532 0.037159C15.1294 0.443514 14.9264 0.860951 14.7448 1.28786C12.9266 1.0107 11.0768 1.0107 9.2586 1.28786C9.0763 0.859563 8.86977 0.441986 8.64001 0.037159C8.63185 0.0242835 8.62023 0.0139666 8.60648 0.00739026C8.59273 0.00081396 8.57741 -0.00175563 8.56227 -2.40709e-05C6.87541 0.292931 5.23359 0.803088 3.67776 1.51772C3.67057 1.51966 3.66385 1.52306 3.65803 1.52771C3.65222 1.53237 3.64742 1.53817 3.64396 1.54476C0.534097 6.19265 -0.317734 10.7256 0.0980407 15.2112C0.10251 15.2337 0.114421 15.2539 0.131843 15.2687C1.94207 16.6142 3.96742 17.6429 6.1217 18.311C6.13686 18.3156 6.15309 18.3155 6.16819 18.3107C6.1833 18.3058 6.19656 18.2965 6.20621 18.2839C6.67144 17.6476 7.08299 16.9737 7.43663 16.2693C7.44115 16.2595 7.44368 16.249 7.44408 16.2382C7.44448 16.2275 7.44275 16.2168 7.43897 16.2067C7.4352 16.1966 7.42946 16.1874 7.4221 16.1796C7.41473 16.1718 7.40588 16.1655 7.39607 16.1611C6.7488 15.9146 6.12254 15.6162 5.52339 15.2687C5.51293 15.262 5.50432 15.2527 5.49836 15.2418C5.49239 15.2309 5.48927 15.2186 5.48927 15.2062C5.48927 15.1937 5.49239 15.1815 5.49836 15.1706C5.50432 15.1596 5.51293 15.1504 5.52339 15.1436C5.64846 15.049 5.77353 14.951 5.89522 14.8496C5.90704 14.8427 5.92045 14.8391 5.9341 14.8391C5.94774 14.8391 5.96115 14.8427 5.97297 14.8496C7.86004 15.735 9.91893 16.194 12.0034 16.194C14.0879 16.194 16.1467 15.735 18.0338 14.8496C18.0457 14.843 18.0591 14.8396 18.0727 14.8396C18.0863 14.8396 18.0996 14.843 18.1116 14.8496C18.2332 14.9476 18.3583 15.049 18.4834 15.1436C18.4939 15.1504 18.5025 15.1596 18.5084 15.1706C18.5144 15.1815 18.5175 15.1937 18.5175 15.2062C18.5175 15.2186 18.5144 15.2309 18.5084 15.2418C18.5025 15.2527 18.4939 15.262 18.4834 15.2687C17.886 15.6195 17.2594 15.918 16.6107 16.1611C16.6009 16.1655 16.5921 16.1718 16.5847 16.1796C16.5773 16.1874 16.5716 16.1966 16.5678 16.2067C16.564 16.2168 16.5623 16.2275 16.5627 16.2382C16.5631 16.249 16.5656 16.2595 16.5702 16.2693C16.9253 16.9589 17.3297 17.622 17.7803 18.2535C17.7891 18.2671 17.8022 18.2774 17.8174 18.2829C17.8327 18.2884 17.8493 18.2888 17.8648 18.2839C20.0233 17.6184 22.0524 16.5896 23.8648 15.2417C23.8743 15.2354 23.8821 15.2269 23.8874 15.2168C23.8927 15.2068 23.8954 15.1956 23.8952 15.1842C24.3947 10.359 23.1356 5.51571 20.3493 1.54476C20.3458 1.53817 20.341 1.53237 20.3352 1.52771C20.3294 1.52306 20.3227 1.51966 20.3155 1.51772ZM8.02142 12.4766C6.83832 12.4766 5.8648 11.3915 5.8648 10.0597C5.8648 8.72786 6.81804 7.63941 8.02142 7.63941C9.2248 7.63941 10.1949 8.73462 10.178 10.0597C10.1611 11.3848 9.22142 12.4766 8.02142 12.4766ZM15.9955 12.4766C14.8124 12.4766 13.8389 11.3915 13.8389 10.0597C13.8389 8.72786 14.7921 7.63941 15.9955 7.63941C17.1989 7.63941 18.169 8.73462 18.1521 10.0597C18.1352 11.3848 17.2056 12.4766 15.9955 12.4766Z" fill="black"/>
</g>
<defs>
<clipPath id="clip0_97_2800">
<rect width="24" height="18.2941" fill="white"/>
</clipPath>
</defs>
</svg>
