<svg width="20" height="15" viewBox="0 0 20 15" fill="none" xmlns="http://www.w3.org/2000/svg">
<path d="M19 1H1C0.72 1 0.5 0.78 0.5 0.5C0.5 0.22 0.72 0 1 0H19C19.28 0 19.5 0.22 19.5 0.5C19.5 0.78 19.28 1 19 1Z" fill="black"/>
<path d="M10 8H1C0.72 8 0.5 7.78 0.5 7.5C0.5 7.22 0.72 7 1 7H10C10.28 7 10.5 7.22 10.5 7.5C10.5 7.78 10.28 8 10 8Z" fill="black"/>
<path d="M19 15H1C0.72 15 0.5 14.78 0.5 14.5C0.5 14.22 0.72 14 1 14H19C19.28 14 19.5 14.22 19.5 14.5C19.5 14.78 19.28 15 19 15Z" fill="black"/>
</svg>
