<svg width="24" height="24" viewBox="0 0 24 24" fill="none" xmlns="http://www.w3.org/2000/svg">
<path d="M12.0051 2.16093C15.2088 2.16093 15.5861 2.16093 16.8518 2.23296C17.6131 2.24052 18.3675 2.37977 19.0813 2.64456C19.599 2.83989 20.0674 3.1467 20.4533 3.54323C20.8515 3.92783 21.1585 4.39661 21.352 4.91525C21.6168 5.62912 21.7561 6.38342 21.7636 7.14478C21.8219 8.41046 21.8356 8.78777 21.8356 11.9949C21.8356 15.2019 21.8356 15.5758 21.7636 16.8415C21.7561 17.6029 21.6168 18.3572 21.352 19.071C21.1515 19.5881 20.8455 20.0577 20.4533 20.4499C20.0612 20.842 19.5916 21.1481 19.0745 21.3486C18.3606 21.6134 17.6063 21.7526 16.8449 21.7602C15.5792 21.8185 15.2019 21.8322 11.9983 21.8322C8.79463 21.8322 8.41389 21.8322 7.14821 21.7602C6.38685 21.7526 5.63255 21.6134 4.91868 21.3486C4.40004 21.1551 3.93126 20.848 3.54666 20.4499C3.14853 20.0653 2.84148 19.5965 2.64799 19.0779C2.3832 18.364 2.24395 17.6097 2.23639 16.8484C2.17465 15.5827 2.16093 15.2054 2.16093 12.0051C2.16093 8.80492 2.16093 8.42075 2.23296 7.15507C2.24052 6.39371 2.37977 5.63941 2.64456 4.92554C2.83805 4.4069 3.1451 3.93812 3.54323 3.55352C3.92914 3.15699 4.39755 2.85018 4.91525 2.65485C5.62912 2.39006 6.38342 2.25081 7.14478 2.24325C8.41732 2.17465 8.79463 2.16093 12.0051 2.16093ZM12.0051 0C8.74318 0 8.335 0 7.05559 0.0720309C6.06016 0.0914282 5.07533 0.280506 4.14349 0.631128C3.34371 0.929247 2.61815 1.39736 2.01686 2.00314C1.41108 2.60443 0.942968 3.32999 0.644848 4.12977C0.28839 5.06403 0.0946479 6.05247 0.0720309 7.05217C0 8.33157 0 8.73975 0 12.0051C0 15.2705 0 15.6684 0.0720309 16.9478C0.0914282 17.9433 0.280506 18.9281 0.631128 19.8599C0.929247 20.6597 1.39736 21.3853 2.00314 21.9866C2.60443 22.5924 3.32999 23.0605 4.12977 23.3586C5.06161 23.7092 6.04644 23.8983 7.04188 23.9177C8.32128 23.976 8.72945 23.9897 11.9914 23.9897C15.2534 23.9897 15.6581 23.9897 16.9375 23.9177C17.933 23.8983 18.9178 23.7092 19.8496 23.3586C20.6483 23.0539 21.3741 22.5851 21.9803 21.9825C22.5865 21.3798 23.0595 20.6568 23.3689 19.8599C23.7195 18.9281 23.9086 17.9433 23.928 16.9478C23.9863 15.6684 24 15.2603 24 12.0017C24 8.74318 24 8.33157 23.928 7.05217C23.9086 6.05673 23.7195 5.0719 23.3689 4.14006C23.0708 3.34028 22.6026 2.61472 21.9969 2.01343C21.3956 1.40765 20.67 0.939538 19.8702 0.641418C18.9358 0.286132 17.9473 0.093551 16.9478 0.0720309C15.6684 0 15.2603 0 12.0051 0ZM12.0051 5.83107C10.784 5.83107 9.59033 6.19317 8.57501 6.87159C7.55969 7.55 6.76834 8.51426 6.30104 9.64243C5.83374 10.7706 5.71148 12.012 5.9497 13.2096C6.18793 14.4073 6.77596 15.5074 7.63941 16.3709C8.50287 17.2343 9.60299 17.8224 10.8006 18.0606C11.9983 18.2988 13.2397 18.1765 14.3679 17.7092C15.496 17.2419 16.4603 16.4506 17.1387 15.4353C17.8171 14.42 18.1792 13.2263 18.1792 12.0051C18.1792 10.3677 17.5287 8.79728 16.3709 7.63941C15.213 6.48155 13.6426 5.83107 12.0051 5.83107ZM12.0051 15.9943C11.2126 15.9956 10.4375 15.7617 9.77799 15.3221C9.11852 14.8824 8.60441 14.2569 8.3008 13.5248C7.99719 12.7927 7.91774 11.987 8.07253 11.2097C8.22732 10.4324 8.60938 9.7185 9.17029 9.15855C9.7312 8.5986 10.4457 8.21777 11.2233 8.06432C12.0009 7.91086 12.8065 7.99169 13.5381 8.29656C14.2696 8.60143 14.8943 9.11662 15.3327 9.77684C15.7712 10.4371 16.0039 11.2126 16.0011 12.0051C16.0002 13.0647 15.5789 14.0805 14.8297 14.8297C14.0805 15.5789 13.0647 16.0002 12.0051 16.0011V15.9943ZM19.8462 5.5944C19.8462 5.87932 19.7617 6.15785 19.6034 6.39476C19.4451 6.63167 19.2201 6.81632 18.9569 6.92535C18.6937 7.03439 18.404 7.06292 18.1246 7.00733C17.8451 6.95175 17.5884 6.81454 17.3869 6.61307C17.1855 6.41159 17.0483 6.1549 16.9927 5.87545C16.9371 5.596 16.9656 5.30634 17.0746 5.0431C17.1837 4.77986 17.3683 4.55486 17.6052 4.39657C17.8421 4.23827 18.1207 4.15378 18.4056 4.15378C18.7877 4.15378 19.1541 4.30556 19.4243 4.57573C19.6944 4.8459 19.8462 5.21232 19.8462 5.5944Z" fill="black"/>
</svg>
