<svg width="12" height="12" viewBox="0 0 12 12" fill="none" xmlns="http://www.w3.org/2000/svg">
<path d="M6.00257 1.08046C7.6044 1.08046 7.79305 1.08046 8.4259 1.11648C8.80657 1.12026 9.18373 1.18989 9.54066 1.32228C9.79951 1.41995 10.0337 1.57335 10.2267 1.77162C10.4257 1.96391 10.5793 2.19831 10.676 2.45762C10.8084 2.81456 10.878 3.19171 10.8818 3.57239C10.911 4.20523 10.9178 4.39388 10.9178 5.99743C10.9178 7.60097 10.9178 7.78791 10.8818 8.42075C10.878 8.80143 10.8084 9.17858 10.676 9.53551C10.5758 9.79406 10.4227 10.0289 10.2267 10.2249C10.0306 10.421 9.79578 10.5741 9.53723 10.6743C9.1803 10.8067 8.80314 10.8763 8.42247 10.8801C7.78962 10.9092 7.60097 10.9161 5.99914 10.9161C4.39731 10.9161 4.20695 10.9161 3.5741 10.8801C3.19343 10.8763 2.81627 10.8067 2.45934 10.6743C2.20002 10.5775 1.96563 10.424 1.77333 10.225C1.57427 10.0327 1.42074 9.79826 1.324 9.53894C1.1916 9.18201 1.12197 8.80486 1.11819 8.42418C1.08732 7.79134 1.08046 7.60269 1.08046 6.00257C1.08046 4.40246 1.08046 4.21038 1.11648 3.57753C1.12026 3.19686 1.18989 2.8197 1.32228 2.46277C1.41903 2.20345 1.57255 1.96906 1.77162 1.77676C1.96457 1.57849 2.19877 1.42509 2.45762 1.32743C2.81456 1.19503 3.19171 1.1254 3.57239 1.12162C4.20866 1.08732 4.39731 1.08046 6.00257 1.08046ZM6.00257 0C4.37159 0 4.1675 0 3.5278 0.0360154C3.03008 0.0457141 2.53767 0.140253 2.07174 0.315564C1.67186 0.464624 1.30907 0.698678 1.00843 1.00157C0.705538 1.30221 0.471484 1.665 0.322424 2.06488C0.144195 2.53202 0.0473239 3.02623 0.0360154 3.52608C0 4.16579 0 4.36987 0 6.00257C0 7.63527 0 7.83421 0.0360154 8.47392C0.0457141 8.97163 0.140253 9.46405 0.315564 9.92997C0.464624 10.3299 0.698678 10.6926 1.00157 10.9933C1.30221 11.2962 1.665 11.5302 2.06488 11.6793C2.53081 11.8546 3.02322 11.9491 3.52094 11.9588C4.16064 11.988 4.36473 11.9949 5.99571 11.9949C7.6267 11.9949 7.82907 11.9949 8.46877 11.9588C8.96649 11.9491 9.4589 11.8546 9.92482 11.6793C10.3241 11.5269 10.6871 11.2926 10.9901 10.9912C11.2932 10.6899 11.5298 10.3284 11.6844 9.92997C11.8597 9.46405 11.9543 8.97163 11.964 8.47392C11.9931 7.83421 12 7.63013 12 6.00086C12 4.37159 12 4.16579 11.964 3.52608C11.9543 3.02837 11.8597 2.53595 11.6844 2.07003C11.5354 1.67014 11.3013 1.30736 10.9984 1.00672C10.6978 0.703823 10.335 0.469769 9.93511 0.320709C9.46788 0.143066 8.97367 0.0467755 8.47392 0.0360154C7.83421 0 7.63013 0 6.00257 0ZM6.00257 2.91554C5.39201 2.91554 4.79517 3.09659 4.28751 3.43579C3.77985 3.775 3.38417 4.25713 3.15052 4.82121C2.91687 5.3853 2.85574 6.006 2.97485 6.60482C3.09397 7.20365 3.38798 7.75371 3.81971 8.18544C4.25144 8.61717 4.80149 8.91118 5.40032 9.03029C5.99915 9.14941 6.61985 9.08827 7.18393 8.85462C7.74801 8.62097 8.23014 8.2253 8.56935 7.71764C8.90856 7.20998 9.08961 6.61313 9.08961 6.00257C9.08961 5.18384 8.76437 4.39864 8.18544 3.81971C7.60651 3.24078 6.82131 2.91554 6.00257 2.91554ZM6.00257 7.99714C5.60629 7.99782 5.21873 7.88084 4.88899 7.66103C4.55926 7.44122 4.30221 7.12847 4.1504 6.76241C3.99859 6.39636 3.95887 5.99348 4.03627 5.60483C4.11366 5.21618 4.30469 4.85925 4.58515 4.57928C4.8656 4.2993 5.22286 4.10889 5.61164 4.03216C6.00043 3.95543 6.40324 3.99585 6.76903 4.14828C7.13482 4.30072 7.44713 4.55831 7.66637 4.88842C7.88562 5.21853 8.00193 5.60629 8.00057 6.00257C8.00012 6.53234 7.78947 7.04027 7.41487 7.41487C7.04027 7.78947 6.53234 8.00012 6.00257 8.00057V7.99714ZM9.92311 2.7972C9.92311 2.93966 9.88086 3.07893 9.80172 3.19738C9.72257 3.31583 9.61007 3.40816 9.47845 3.46268C9.34683 3.5172 9.202 3.53146 9.06228 3.50367C8.92255 3.47587 8.7942 3.40727 8.69347 3.30653C8.59273 3.2058 8.52413 3.07745 8.49633 2.93772C8.46854 2.798 8.4828 2.65317 8.53732 2.52155C8.59184 2.38993 8.68417 2.27743 8.80262 2.19828C8.92107 2.11914 9.06034 2.07689 9.2028 2.07689C9.39384 2.07689 9.57705 2.15278 9.71214 2.28786C9.84722 2.42295 9.92311 2.60616 9.92311 2.7972Z" fill="white"/>
</svg>
