<svg width="156" height="25" viewBox="0 0 156 25" fill="none" xmlns="http://www.w3.org/2000/svg">
<path d="M9.71089 13.7193V24.3117H0V0H9.71089L21.2665 17.6777L32.6174 0H42.3283V24.3117H32.6174V13.8928L25.651 24.3117H16.6352L9.71089 13.7193Z" fill="black"/>
<path d="M70.9309 15.4562H58.1054V24.3117H48.3945V0H58.1054V8.8223H70.9309V0H80.6418V24.3117H70.9309V15.4562Z" fill="black"/>
<path d="M124.737 24.3117H113.796L111.789 20.7001H98.4695L96.339 24.3117H85.4785L99.6582 0H110.558L124.737 24.3117ZM102.321 14.0662H107.813L105.069 9.27374L102.324 14.0662H102.321Z" fill="black"/>
<path d="M129.24 0H155.999V6.63394H138.951V8.8223H155.999V15.4562H138.951V24.3117H129.24V0Z" fill="black"/>
</svg>
