<svg width="506" height="125" viewBox="0 0 506 125" fill="none" xmlns="http://www.w3.org/2000/svg">
<path d="M31.4981 52.5992V93.2097H0V0H31.4981L68.9796 67.7756L105.797 0H137.295V93.2097H105.797V53.2641L83.2011 93.2097H53.9577L31.4981 52.5992Z" fill="black"/>
<path d="M230.071 59.2584H188.471V93.2097H156.973V0H188.471V33.8242H230.071V0H261.569V93.2097H230.071V59.2584Z" fill="black"/>
<path d="M404.595 93.2097H369.105L362.595 79.3632H319.393L312.483 93.2097H277.256L323.249 0H358.602L404.595 93.2097ZM331.887 53.929H349.701L340.799 35.555L331.897 53.929H331.887Z" fill="black"/>
<path d="M419.207 0H506V25.4342H450.705V33.8242H506V59.2584H450.705V93.2097H419.207V0Z" fill="black"/>
<path d="M4.04097 110.342V124.452H0V104.514H5.49533L10.9321 117.764L16.8862 104.514H22.2937V124.452H18.2234V110.342L12.3572 124.452H9.263L4.02145 110.342H4.04097Z" fill="black"/>
<path d="M27.8574 104.523H41.6592L41.6299 107.966H32.0936V112.845H40.4586V116.346H32.0936V120.932H41.9715V124.462H27.8281L27.8574 104.523Z" fill="black"/>
<path d="M52.5709 107.985H45.7871V104.514H63.6299V107.985H56.8461V124.452H52.5806V107.985H52.5709Z" fill="black"/>
<path d="M71.4399 104.523H77.1403L83.924 124.462H79.4536L78.0773 120.365H70.4931L69.2047 124.462H64.5391L71.4399 104.523ZM77.0231 117.089L74.1925 108.885L71.4399 117.089H77.0231Z" fill="black"/>
<path d="M114.445 116.219H105.855V124.452H101.59V104.514H105.855V112.835H114.474V104.514H118.71V124.452H114.445V116.219Z" fill="black"/>
<path d="M126.716 122.594C125.066 120.991 124.236 118.517 124.236 115.192V104.523H128.473V115.055C128.473 117.197 128.922 118.732 129.82 119.661C130.718 120.59 131.986 121.049 133.626 121.049C135.266 121.049 136.574 120.56 137.482 119.573C138.389 118.585 138.838 117.079 138.838 115.055V104.523H143.192V115.309C143.192 117.353 142.811 119.103 142.06 120.541C141.308 121.988 140.205 123.093 138.77 123.856C137.326 124.618 135.588 125 133.548 125C130.649 125 128.375 124.198 126.716 122.594Z" fill="black"/>
<path d="M152.785 110.342V124.452H148.744V104.514H154.239L159.676 117.764L165.63 104.514H171.038V124.452H166.968V110.342L161.101 124.452H158.007L152.766 110.342H152.785Z" fill="black"/>
<path d="M182.538 104.523H188.238L195.022 124.462H190.551L189.175 120.365H181.591L180.302 124.462H175.637L182.538 104.523ZM188.121 117.089L185.29 108.885L182.538 117.089H188.121Z" fill="black"/>
<path d="M204.098 110.889V124.462H199.949V104.523H204.098L213.751 118.38V104.523H217.841V124.462H213.546L204.098 110.889Z" fill="black"/>
<path d="M226.978 124.051C225.582 123.416 224.499 122.565 223.728 121.48C222.957 120.404 222.527 119.201 222.449 117.881H226.627C226.822 118.937 227.33 119.788 228.159 120.433C228.989 121.088 230.102 121.431 231.497 121.47C232.971 121.509 234.133 121.284 235.002 120.795C235.87 120.306 236.319 119.651 236.358 118.83C236.378 118.086 236.007 117.509 235.255 117.099C234.504 116.688 233.254 116.414 231.517 116.277C228.843 116.013 226.822 115.378 225.465 114.38C224.099 113.383 223.425 112.024 223.445 110.303C223.484 109.178 223.865 108.171 224.587 107.291C225.309 106.411 226.295 105.726 227.525 105.237C228.755 104.748 230.111 104.504 231.605 104.504C233.303 104.504 234.816 104.797 236.134 105.394C237.452 105.99 238.496 106.802 239.287 107.829C240.067 108.865 240.555 110.029 240.751 111.329L236.544 111.3C236.329 110.361 235.802 109.589 234.953 108.992C234.104 108.386 233.001 108.093 231.644 108.093C230.844 108.093 230.141 108.2 229.536 108.425C228.93 108.65 228.472 108.943 228.159 109.325C227.847 109.706 227.691 110.117 227.691 110.557C227.71 111.192 227.984 111.681 228.511 112.033C229.038 112.385 229.897 112.63 231.097 112.767L231.702 112.826C234.914 113.109 237.217 113.754 238.613 114.762C240.009 115.769 240.731 117.099 240.751 118.761C240.751 119.905 240.399 120.952 239.706 121.9C239.013 122.849 237.979 123.602 236.612 124.149C235.246 124.707 233.635 124.98 231.79 124.98C229.946 124.98 228.374 124.667 226.978 124.032V124.051Z" fill="black"/>
<path d="M264.918 104.523H270.619L277.403 124.462H272.932L271.556 120.365H263.972L262.683 124.462H258.018L264.918 104.523ZM270.502 117.089L267.671 108.885L264.918 117.089H270.502Z" fill="black"/>
<path d="M282.146 104.523H286.441V120.727H296.29V124.452H282.146V104.514V104.523Z" fill="black"/>
<path d="M310.579 110.801L307.056 124.452H301.814L297.266 104.514H301.678L304.684 119.455L308.373 104.514H312.58L316.504 119.289L319.628 104.514H324.235L319.335 124.452H314.435L310.57 110.801H310.579Z" fill="black"/>
<path d="M332.346 104.523H338.046L344.83 124.462H340.36L338.984 120.365H331.399L330.111 124.462H325.445L332.346 104.523ZM337.929 117.089L335.099 108.885L332.346 117.089H337.929Z" fill="black"/>
<path d="M353.272 118.517L346.518 104.514H351.037L355.449 114.351L360.397 104.514H365.034L357.645 118.165V124.442H353.262V118.507L353.272 118.517Z" fill="black"/>
<path d="M371.545 124.051C370.149 123.416 369.065 122.565 368.294 121.48C367.523 120.404 367.094 119.201 367.016 117.881H371.193C371.388 118.937 371.896 119.788 372.726 120.433C373.555 121.088 374.668 121.431 376.064 121.47C377.538 121.509 378.699 121.284 379.568 120.795C380.437 120.306 380.886 119.651 380.925 118.83C380.944 118.086 380.573 117.509 379.822 117.099C379.07 116.688 377.821 116.414 376.083 116.277C373.409 116.013 371.388 115.378 370.032 114.38C368.665 113.383 367.992 112.024 368.011 110.303C368.05 109.178 368.431 108.171 369.153 107.291C369.876 106.411 370.861 105.726 372.091 105.237C373.321 104.748 374.678 104.504 376.171 104.504C377.87 104.504 379.383 104.797 380.7 105.394C382.018 105.99 383.062 106.802 383.853 107.829C384.634 108.865 385.122 110.029 385.317 111.329L381.11 111.3C380.895 110.361 380.368 109.589 379.519 108.992C378.67 108.386 377.567 108.093 376.21 108.093C375.41 108.093 374.707 108.2 374.102 108.425C373.497 108.65 373.038 108.943 372.726 109.325C372.413 109.706 372.257 110.117 372.257 110.557C372.277 111.192 372.55 111.681 373.077 112.033C373.604 112.385 374.463 112.63 375.664 112.767L376.269 112.826C379.48 113.109 381.784 113.754 383.18 114.762C384.575 115.769 385.298 117.099 385.317 118.761C385.317 119.905 384.966 120.952 384.273 121.9C383.58 122.849 382.545 123.602 381.179 124.149C379.812 124.707 378.201 124.98 376.357 124.98C374.512 124.98 372.94 124.667 371.545 124.032V124.051Z" fill="black"/>
<path d="M403.414 104.523H417.04V108.171H407.709V114.312H416.123L416.093 117.93H407.699V124.472H403.404V104.533L403.414 104.523Z" fill="black"/>
<path d="M426.118 104.523H431.818L438.602 124.462H434.131L432.755 120.365H425.171L423.882 124.462H419.217L426.118 104.523ZM431.701 117.089L428.87 108.885L426.118 117.089H431.701Z" fill="black"/>
<path d="M447.68 110.889V124.462H443.531V104.523H447.68L457.333 118.38V104.523H461.423V124.462H457.128L447.68 110.889Z" fill="black"/>
<path d="M471.115 123.641C469.632 122.731 468.509 121.499 467.738 119.944C466.967 118.39 466.606 116.668 466.664 114.791C466.684 112.913 467.113 111.192 467.953 109.628C468.792 108.063 469.963 106.812 471.476 105.902C472.98 104.983 474.707 104.523 476.659 104.523C478.436 104.523 479.988 104.944 481.325 105.775C482.662 106.606 483.687 107.682 484.419 108.992C485.142 110.303 485.512 111.652 485.532 113.05H481.462C481.403 112.151 481.169 111.339 480.759 110.625C480.349 109.911 479.783 109.344 479.07 108.943C478.358 108.542 477.509 108.337 476.532 108.337C475.449 108.337 474.483 108.63 473.643 109.227C472.804 109.823 472.15 110.606 471.681 111.593C471.213 112.581 470.959 113.637 470.92 114.762C470.881 116.043 471.076 117.167 471.506 118.135C471.935 119.103 472.57 119.856 473.399 120.384C474.229 120.922 475.205 121.186 476.337 121.186C477.196 121.186 477.987 120.991 478.709 120.609C479.431 120.228 480.027 119.69 480.486 119.006C480.944 118.321 481.227 117.519 481.345 116.629H485.493C485.376 117.989 484.927 119.309 484.146 120.599C483.365 121.89 482.301 122.946 480.954 123.768C479.607 124.589 478.045 125 476.269 125C474.307 125 472.579 124.54 471.096 123.641H471.115Z" fill="black"/>
<path d="M494.239 118.517L487.484 104.514H492.004L496.415 114.351L501.364 104.514H506.001L498.612 118.165V124.442H494.229V118.507L494.239 118.517Z" fill="black"/>
</svg>
