<svg width="24" height="24" viewBox="0 0 24 24" fill="none" xmlns="http://www.w3.org/2000/svg">
<g clip-path="url(#clip0_97_2767)">
<path d="M24 12C24 14.3734 23.2962 16.6935 21.9776 18.6668C20.6591 20.6402 18.7849 22.1783 16.5922 23.0866C14.3995 23.9948 11.9867 24.2324 9.65892 23.7694C7.33115 23.3064 5.19295 22.1635 3.51472 20.4853C1.83649 18.8071 0.693605 16.6689 0.230582 14.3411C-0.232441 12.0133 0.00519939 9.60051 0.913451 7.4078C1.8217 5.21509 3.35977 3.34094 5.33316 2.02236C7.30655 0.703788 9.62663 0 12 0C15.1826 0 18.2349 1.26428 20.4853 3.51472C22.7357 5.76516 24 8.8174 24 12Z" fill="black"/>
<path d="M5.92086 12.4032L5.97126 12.3216L9.09366 7.44002C9.10434 7.42421 9.11901 7.41151 9.13619 7.40321C9.15336 7.39491 9.17243 7.39131 9.19145 7.39277C9.21047 7.39424 9.22876 7.40071 9.24447 7.41154C9.26017 7.42237 9.27273 7.43716 9.28086 7.45442C9.80166 8.62322 10.2409 10.0776 10.0417 10.9824C9.89888 11.4555 9.69217 11.9069 9.42726 12.324C9.39126 12.3912 9.35286 12.4584 9.30966 12.5232C9.29977 12.5375 9.28649 12.5492 9.27099 12.5572C9.2555 12.5651 9.23828 12.5691 9.22086 12.5688H6.01206C5.99244 12.5696 5.97298 12.5649 5.95587 12.5553C5.93876 12.5457 5.92467 12.5314 5.9152 12.5142C5.90573 12.497 5.90124 12.4775 5.90224 12.4579C5.90324 12.4383 5.90969 12.4194 5.92086 12.4032Z" fill="white"/>
<path d="M19.8337 13.3104V14.0832C19.834 14.1045 19.8281 14.1255 19.8165 14.1434C19.805 14.1614 19.7884 14.1755 19.7689 14.184C19.5289 14.2872 18.6985 14.664 18.3553 15.144C17.4769 16.368 16.8001 18.1152 15.3073 18.1152H9.05285C8.52485 18.1146 8.00215 18.0099 7.51464 17.8071C7.02713 17.6043 6.58437 17.3074 6.21168 16.9334C5.839 16.5594 5.54369 16.1156 5.34265 15.6273C5.14162 15.1391 5.03879 14.616 5.04005 14.088V14.016C5.04068 13.9878 5.05233 13.9609 5.07252 13.9412C5.09271 13.9215 5.11982 13.9104 5.14805 13.9104H8.64005C8.65647 13.911 8.67259 13.9149 8.68742 13.922C8.70225 13.929 8.71547 13.9391 8.72627 13.9514C8.73707 13.9638 8.74522 13.9783 8.7502 13.9939C8.75519 14.0096 8.7569 14.0261 8.75525 14.0424C8.72974 14.273 8.77317 14.5061 8.88005 14.712C8.98135 14.9169 9.138 15.0894 9.33227 15.2099C9.52654 15.3303 9.75067 15.394 9.97925 15.3936H11.7049V14.0472H9.99125C9.97135 14.0468 9.95192 14.041 9.93503 14.0305C9.91814 14.0199 9.90442 14.005 9.89532 13.9873C9.88622 13.9696 9.88207 13.9497 9.88333 13.9299C9.88459 13.91 9.89119 13.8908 9.90245 13.8744L9.96485 13.7832C10.1257 13.5432 10.3561 13.1976 10.5865 12.792C10.7468 12.5145 10.8903 12.2276 11.0161 11.9328C11.0401 11.88 11.0593 11.8248 11.0809 11.772C11.1145 11.6784 11.1481 11.5896 11.1721 11.5032C11.1961 11.4168 11.2177 11.352 11.2369 11.28C11.2937 11.0215 11.3211 10.7575 11.3185 10.4928C11.3185 10.3848 11.3185 10.272 11.3041 10.1664C11.2897 10.0608 11.2849 9.92642 11.2705 9.81362C11.2561 9.70082 11.2417 9.60722 11.2225 9.50162C11.1961 9.34562 11.1625 9.18962 11.1241 9.02162L11.1097 8.96162C11.0809 8.85362 11.0545 8.75282 11.0209 8.64482C10.9225 8.30882 10.8121 7.98002 10.6921 7.68482C10.6489 7.56242 10.6009 7.44482 10.5505 7.32962C10.4785 7.15202 10.4041 6.99122 10.3369 6.84962C10.3009 6.78002 10.2721 6.71762 10.2433 6.65282C10.2145 6.58802 10.1761 6.50882 10.1401 6.43922C10.1041 6.36962 10.0873 6.33602 10.0681 6.28802L9.85685 5.89922C9.85053 5.88745 9.84772 5.87411 9.84878 5.86079C9.84983 5.84747 9.8547 5.83473 9.8628 5.8241C9.8709 5.81347 9.88189 5.80539 9.89445 5.80084C9.90701 5.79629 9.92062 5.79545 9.93365 5.79842L11.2537 6.15602L11.4265 6.20642L11.6185 6.25922L11.6881 6.27842V5.48643C11.6874 5.3959 11.7048 5.30616 11.7392 5.22244C11.7736 5.13871 11.8244 5.06268 11.8885 4.99878C11.9526 4.93489 12.0288 4.8844 12.1127 4.85027C12.1965 4.81615 12.2863 4.79907 12.3769 4.80003C12.4664 4.79933 12.5551 4.81684 12.6376 4.8515C12.7201 4.88615 12.7947 4.93723 12.8569 5.00163C12.9834 5.12948 13.0549 5.30175 13.0561 5.48163V6.64562L13.1977 6.68402L13.2289 6.70082L13.3753 6.81122C13.4257 6.84962 13.4785 6.89762 13.5409 6.94802C13.6681 7.05122 13.8217 7.18802 13.9873 7.33442C14.0305 7.37282 14.0737 7.41122 14.1145 7.45202C14.3281 7.65122 14.5681 7.88402 14.7985 8.14322C14.8633 8.21762 14.9257 8.28962 14.9905 8.36882C15.0553 8.44802 15.1225 8.52482 15.1801 8.60882C15.2377 8.69282 15.3409 8.82002 15.4201 8.93282C15.4537 8.98562 15.4945 9.04082 15.5257 9.09362C15.6185 9.23403 15.7042 9.37901 15.7825 9.52802C15.8161 9.59522 15.8497 9.66962 15.8785 9.74162C15.9665 9.93233 16.0341 10.1319 16.0801 10.3368C16.0942 10.3797 16.1039 10.4239 16.1089 10.4688C16.122 10.5296 16.1301 10.5915 16.1329 10.6536C16.1514 10.8633 16.1376 11.0745 16.0921 11.28C16.0729 11.3664 16.0489 11.448 16.0201 11.5368C15.9913 11.6256 15.9601 11.7072 15.9217 11.7912C15.8476 11.9654 15.7593 12.1331 15.6577 12.2928C15.6241 12.3528 15.5833 12.4152 15.5449 12.4752C15.5065 12.5352 15.4561 12.5976 15.4177 12.6552C15.3793 12.7128 15.3049 12.8064 15.2449 12.876C15.1937 12.9487 15.1384 13.0184 15.0793 13.0848C14.9977 13.1832 14.9185 13.2744 14.8393 13.3632C14.7905 13.4229 14.7384 13.4797 14.6833 13.5336C14.6305 13.5936 14.5753 13.6464 14.5273 13.6944C14.4793 13.7424 14.3761 13.8408 14.3185 13.896L14.1817 14.0184C14.1721 14.0277 14.1609 14.0351 14.1485 14.04C14.1362 14.045 14.123 14.0474 14.1097 14.0472H13.0537V15.3936H14.3761C14.6711 15.3942 14.9565 15.2885 15.1801 15.096C15.4675 14.845 15.74 14.5773 15.9961 14.2944C16.009 14.2788 16.0267 14.2679 16.0465 14.2632L19.6969 13.2C19.7134 13.1954 19.7308 13.1948 19.7477 13.1983C19.7645 13.2018 19.7803 13.2092 19.7937 13.22C19.8071 13.2308 19.8177 13.2446 19.8246 13.2604C19.8316 13.2761 19.8347 13.2933 19.8337 13.3104Z" fill="white"/>
</g>
<defs>
<clipPath id="clip0_97_2767">
<rect width="24" height="24" fill="white"/>
</clipPath>
</defs>
</svg>
