<svg width="15" height="15" viewBox="0 0 15 15" fill="none" xmlns="http://www.w3.org/2000/svg">
<path d="M14.8337 9.31035V10.0832C14.834 10.1045 14.8281 10.1254 14.8165 10.1434C14.805 10.1613 14.7884 10.1754 14.7689 10.184C14.5289 10.2872 13.6985 10.664 13.3553 11.144C12.4769 12.368 11.8001 14.1151 10.3073 14.1151H4.05285C3.52485 14.1145 3.00215 14.0098 2.51464 13.807C2.02713 13.6042 1.58437 13.3074 1.21168 12.9333C0.838998 12.5593 0.543693 12.1155 0.342654 11.6273C0.141616 11.139 0.0387885 10.616 0.0400505 10.088V10.016C0.0406779 9.98773 0.0523329 9.96087 0.0725193 9.94113C0.0927056 9.9214 0.119818 9.91035 0.148051 9.91035H3.64005C3.65647 9.91093 3.67259 9.91486 3.68742 9.92192C3.70225 9.92898 3.71547 9.939 3.72627 9.95138C3.73707 9.96375 3.74522 9.97821 3.7502 9.99386C3.75519 10.0095 3.7569 10.026 3.75525 10.0424C3.72974 10.273 3.77317 10.506 3.88005 10.712C3.98135 10.9169 4.138 11.0893 4.33227 11.2098C4.52654 11.3303 4.75067 11.3939 4.97925 11.3936H6.70485V10.0472H4.99125C4.97135 10.0467 4.95192 10.041 4.93503 10.0304C4.91814 10.0199 4.90442 10.0049 4.89532 9.98724C4.88622 9.96953 4.88207 9.94968 4.88333 9.92981C4.88459 9.90994 4.89119 9.89078 4.90245 9.87435L4.96485 9.78315C5.12565 9.54315 5.35605 9.19755 5.58645 8.79195C5.7468 8.51446 5.89026 8.22753 6.01605 7.93276C6.04005 7.87996 6.05925 7.82476 6.08085 7.77196C6.11445 7.67836 6.14805 7.58956 6.17205 7.50316C6.19605 7.41676 6.21765 7.35196 6.23685 7.27996C6.29369 7.02148 6.32107 6.7574 6.31845 6.49276C6.31845 6.38476 6.31845 6.27196 6.30405 6.16636C6.28965 6.06076 6.28485 5.92636 6.27045 5.81356C6.25605 5.70076 6.24165 5.60716 6.22245 5.50156C6.19605 5.34556 6.16245 5.18956 6.12405 5.02156L6.10965 4.96156C6.08085 4.85356 6.05445 4.75276 6.02085 4.64476C5.92245 4.30876 5.81205 3.97996 5.69205 3.68476C5.64885 3.56236 5.60085 3.44476 5.55045 3.32956C5.47845 3.15196 5.40405 2.99116 5.33685 2.84956C5.30085 2.77996 5.27205 2.71756 5.24325 2.65276C5.21445 2.58796 5.17605 2.50876 5.14005 2.43916C5.10405 2.36956 5.08725 2.33596 5.06805 2.28796L4.85685 1.89916C4.85053 1.88739 4.84772 1.87405 4.84878 1.86073C4.84983 1.8474 4.8547 1.83467 4.8628 1.82404C4.8709 1.81341 4.88189 1.80533 4.89445 1.80078C4.90701 1.79623 4.92062 1.79539 4.93365 1.79836L6.25365 2.15596L6.42645 2.20636L6.61845 2.25916L6.68805 2.27836V1.48636C6.68741 1.39584 6.70481 1.3061 6.73922 1.22238C6.77364 1.13865 6.82439 1.06262 6.88851 0.998722C6.95264 0.934824 7.02884 0.884339 7.11269 0.850214C7.19653 0.816088 7.28634 0.799006 7.37685 0.799965C7.46635 0.799267 7.55506 0.81678 7.63757 0.851437C7.72009 0.886094 7.7947 0.937172 7.85685 1.00156C7.98338 1.12942 8.05488 1.30169 8.05606 1.48156V2.64556L8.19766 2.68396L8.22885 2.70076L8.37525 2.81116C8.42565 2.84956 8.47845 2.89756 8.54085 2.94796C8.66805 3.05116 8.82166 3.18796 8.98726 3.33436C9.03045 3.37276 9.07366 3.41116 9.11446 3.45196C9.32806 3.65116 9.56806 3.88396 9.79846 4.14316C9.86326 4.21756 9.92566 4.28956 9.99046 4.36876C10.0553 4.44796 10.1225 4.52476 10.1801 4.60876C10.2377 4.69276 10.3409 4.81996 10.4201 4.93276C10.4537 4.98556 10.4945 5.04076 10.5257 5.09356C10.6185 5.23397 10.7042 5.37895 10.7825 5.52796C10.8161 5.59516 10.8497 5.66956 10.8785 5.74156C10.9665 5.93227 11.0341 6.13179 11.0801 6.33676C11.0942 6.37964 11.1039 6.42388 11.1089 6.46876C11.122 6.52957 11.1301 6.59139 11.1329 6.65356C11.1514 6.86321 11.1376 7.07447 11.0921 7.27996C11.0729 7.36636 11.0489 7.44796 11.0201 7.53676C10.9913 7.62556 10.9601 7.70716 10.9217 7.79116C10.8476 7.96531 10.7593 8.13308 10.6577 8.29276C10.6241 8.35276 10.5833 8.41515 10.5449 8.47515C10.5065 8.53515 10.4561 8.59756 10.4177 8.65516C10.3793 8.71276 10.3049 8.80636 10.2449 8.87596C10.1937 8.94864 10.1384 9.01835 10.0793 9.08475C9.99766 9.18316 9.91846 9.27435 9.83926 9.36315C9.79045 9.4228 9.73837 9.47969 9.68326 9.53355C9.63046 9.59355 9.57526 9.64635 9.52726 9.69435C9.47925 9.74235 9.37606 9.84075 9.31846 9.89595L9.18165 10.0184C9.17215 10.0277 9.16089 10.035 9.14853 10.04C9.13618 10.0449 9.12296 10.0473 9.10966 10.0472H8.05365V11.3936H9.37606C9.67109 11.3941 9.95647 11.2885 10.1801 11.096C10.4675 10.8449 10.74 10.5773 10.9961 10.2944C11.009 10.2788 11.0267 10.2678 11.0465 10.2632L14.6969 9.19995C14.7134 9.19534 14.7308 9.19475 14.7477 9.19822C14.7645 9.2017 14.7803 9.20915 14.7937 9.21995C14.8071 9.23074 14.8177 9.24458 14.8246 9.26031C14.8316 9.27603 14.8347 9.29319 14.8337 9.31035Z" fill="white"/>
</svg>
