<svg width="12" height="12" viewBox="0 0 12 12" fill="none" xmlns="http://www.w3.org/2000/svg">
<g clip-path="url(#clip0_178_176)">
<path d="M12 6C12 7.18669 11.6481 8.34673 10.9888 9.33342C10.3295 10.3201 9.39246 11.0892 8.2961 11.5433C7.19975 11.9974 5.99335 12.1162 4.82946 11.8847C3.66557 11.6532 2.59648 11.0818 1.75736 10.2426C0.918247 9.40353 0.346802 8.33443 0.115291 7.17054C-0.11622 6.00666 0.0025997 4.80026 0.456726 3.7039C0.910851 2.60754 1.67989 1.67047 2.66658 1.01118C3.65328 0.351894 4.81332 0 6 0C7.5913 0 9.11743 0.632141 10.2426 1.75736C11.3679 2.88258 12 4.4087 12 6Z" fill="white"/>
<path d="M2.96055 6.20167L2.98575 6.16087L4.54695 3.72007C4.55229 3.71216 4.55963 3.70582 4.56822 3.70167C4.5768 3.69752 4.58634 3.69572 4.59585 3.69645C4.60536 3.69718 4.6145 3.70042 4.62236 3.70583C4.63021 3.71124 4.63649 3.71864 4.64055 3.72727C4.90095 4.31167 5.12055 5.03887 5.02095 5.49127C4.94956 5.72781 4.84621 5.95349 4.71375 6.16207C4.69575 6.19567 4.67655 6.22927 4.65495 6.26167C4.65001 6.26883 4.64336 6.27467 4.63562 6.27864C4.62787 6.28262 4.61926 6.28462 4.61055 6.28447H3.00615C2.99634 6.28487 2.98661 6.28253 2.97806 6.27771C2.9695 6.27289 2.96246 6.26578 2.95772 6.25718C2.95298 6.24858 2.95074 6.23883 2.95124 6.22902C2.95174 6.21921 2.95497 6.20974 2.96055 6.20167V6.20167Z" fill="black"/>
<path d="M9.91634 6.65512V7.04152C9.91652 7.05218 9.91354 7.06265 9.90777 7.07162C9.90201 7.08059 9.89371 7.08765 9.88394 7.09192C9.76394 7.14352 9.34874 7.33192 9.17714 7.57191C8.73794 8.18391 8.39954 9.05751 7.65314 9.05751H4.52594C4.26194 9.0572 4.00059 9.00485 3.75683 8.90346C3.51308 8.80206 3.2917 8.65362 3.10535 8.46661C2.91901 8.27959 2.77136 8.05769 2.67084 7.81357C2.57032 7.56945 2.51891 7.30792 2.51954 7.04392V7.00792C2.51985 6.9938 2.52568 6.98037 2.53577 6.97051C2.54586 6.96064 2.55942 6.95511 2.57354 6.95512H4.31954C4.32774 6.9554 4.33581 6.95737 4.34322 6.9609C4.35064 6.96443 4.35725 6.96944 4.36265 6.97563C4.36805 6.98181 4.37212 6.98904 4.37461 6.99687C4.3771 7.00469 4.37796 7.01295 4.37714 7.02112C4.36438 7.13643 4.3861 7.25294 4.43954 7.35592C4.49019 7.45837 4.56851 7.5446 4.66565 7.60484C4.76278 7.66507 4.87484 7.6969 4.98914 7.69671H5.85194V7.02352H4.99514C4.98518 7.02331 4.97547 7.02042 4.96703 7.01515C4.95858 7.00987 4.95172 7.00241 4.94717 6.99356C4.94262 6.9847 4.94055 6.97478 4.94118 6.96484C4.94181 6.95491 4.94511 6.94533 4.95074 6.93712L4.98194 6.89152C5.06234 6.77152 5.17754 6.59872 5.29274 6.39592C5.37291 6.25717 5.44464 6.11371 5.50754 5.96632C5.51954 5.93992 5.52914 5.91232 5.53994 5.88592C5.55674 5.83912 5.57354 5.79472 5.58554 5.75152C5.59754 5.70832 5.60834 5.67592 5.61794 5.63992C5.64636 5.51068 5.66005 5.37864 5.65874 5.24632C5.65874 5.19232 5.65874 5.13592 5.65154 5.08312C5.64434 5.03032 5.64194 4.96312 5.63474 4.90672C5.62754 4.85032 5.62034 4.80352 5.61074 4.75072C5.59754 4.67272 5.58074 4.59472 5.56154 4.51072L5.55434 4.48072C5.53994 4.42672 5.52674 4.37632 5.50994 4.32232C5.46074 4.15432 5.40554 3.98992 5.34554 3.84232C5.32394 3.78112 5.29994 3.72232 5.27474 3.66472C5.23874 3.57592 5.20154 3.49552 5.16794 3.42472C5.14994 3.38992 5.13554 3.35872 5.12114 3.32632C5.10674 3.29392 5.08754 3.25432 5.06954 3.21952C5.05154 3.18472 5.04314 3.16792 5.03354 3.14392L4.92794 2.94952C4.92478 2.94363 4.92337 2.93696 4.9239 2.9303C4.92443 2.92364 4.92686 2.91727 4.93091 2.91196C4.93496 2.90664 4.94045 2.90261 4.94674 2.90033C4.95302 2.89805 4.95982 2.89763 4.96634 2.89912L5.62634 3.07792L5.71274 3.10312L5.80874 3.12952L5.84354 3.13912V2.74312C5.84322 2.69786 5.85192 2.65299 5.86912 2.61113C5.88633 2.56926 5.91171 2.53125 5.94377 2.4993C5.97583 2.46735 6.01393 2.44211 6.05586 2.42505C6.09778 2.40798 6.14268 2.39944 6.18794 2.39992C6.23269 2.39957 6.27704 2.40833 6.3183 2.42566C6.35956 2.44299 6.39686 2.46852 6.42794 2.50072C6.4912 2.56465 6.52695 2.65079 6.52754 2.74072V3.32272L6.59834 3.34192L6.61394 3.35032L6.68714 3.40552C6.71234 3.42472 6.73874 3.44872 6.76994 3.47392C6.83354 3.52552 6.91034 3.59392 6.99314 3.66712C7.01474 3.68632 7.03634 3.70552 7.05674 3.72592C7.16354 3.82552 7.28354 3.94192 7.39874 4.07152C7.43114 4.10872 7.46234 4.14472 7.49474 4.18432C7.52714 4.22392 7.56074 4.26232 7.58954 4.30432C7.61834 4.34632 7.66994 4.40992 7.70954 4.46632C7.72634 4.49272 7.74674 4.52032 7.76234 4.54672C7.80875 4.61692 7.85161 4.68941 7.89074 4.76392C7.90754 4.79752 7.92434 4.83472 7.93874 4.87072C7.98277 4.96608 8.01655 5.06583 8.03954 5.16832C8.04662 5.18976 8.05144 5.21188 8.05394 5.23432V5.23432C8.06053 5.26473 8.06454 5.29564 8.06594 5.32672C8.07521 5.43155 8.06833 5.53718 8.04554 5.63992C8.03594 5.68312 8.02394 5.72392 8.00954 5.76832C7.99514 5.81272 7.97954 5.85352 7.96034 5.89552C7.92329 5.98259 7.87914 6.06648 7.82834 6.14632C7.81154 6.17632 7.79114 6.20752 7.77194 6.23752C7.75274 6.26752 7.72754 6.29872 7.70834 6.32752C7.68914 6.35632 7.65194 6.40312 7.62194 6.43792C7.59634 6.47426 7.5687 6.50912 7.53914 6.54232C7.49834 6.59152 7.45874 6.63712 7.41914 6.68152C7.39474 6.71134 7.3687 6.73978 7.34114 6.76672C7.31474 6.79672 7.28714 6.82312 7.26314 6.84712C7.23914 6.87112 7.18754 6.92032 7.15874 6.94792L7.09034 7.00912C7.08559 7.01377 7.07996 7.01744 7.07378 7.01992C7.0676 7.02239 7.06099 7.02361 7.05434 7.02352H6.52634V7.69671H7.18754C7.33506 7.69698 7.47775 7.64417 7.58954 7.54792C7.73326 7.4224 7.86949 7.28857 7.99754 7.14712C8.00403 7.13932 8.01287 7.13385 8.02274 7.13152L9.84794 6.59992C9.85622 6.59761 9.86494 6.59731 9.87335 6.59905C9.88177 6.60079 9.88966 6.60451 9.89635 6.60991C9.90304 6.61531 9.90834 6.62223 9.91182 6.63009C9.9153 6.63795 9.91685 6.64653 9.91634 6.65512V6.65512Z" fill="black"/>
</g>
<defs>
<clipPath id="clip0_178_176">
<rect width="12" height="12" fill="white"/>
</clipPath>
</defs>
</svg>
