<svg width="10" height="10" viewBox="0 0 10 10" fill="none" xmlns="http://www.w3.org/2000/svg">
<path d="M5 4.5C3.895 4.5 3 3.605 3 2.5C3 1.395 3.895 0.5 5 0.5C6.105 0.5 7 1.395 7 2.5C7 3.605 6.105 4.5 5 4.5ZM5 1C4.175 1 3.5 1.675 3.5 2.5C3.5 3.325 4.175 4 5 4C5.825 4 6.5 3.325 6.5 2.5C6.5 1.675 5.825 1 5 1Z" fill="black"/>
<path d="M0.49992 9.25C0.44992 9.25 0.40492 9.235 0.35992 9.205C0.24492 9.13 0.21492 8.97 0.29492 8.86C1.41492 7.2 3.12992 6.25 4.99992 6.25C6.86992 6.25 8.58492 7.2 9.70492 8.86C9.77992 8.975 9.74992 9.13 9.63992 9.205C9.52492 9.285 9.36992 9.25 9.29492 9.14C8.26492 7.62 6.69992 6.75 4.99992 6.75C3.29992 6.75 1.73492 7.62 0.70492 9.14C0.65992 9.21 0.57992 9.25 0.49992 9.25Z" fill="black"/>
</svg>
