<svg width="8" height="10" viewBox="0 0 8 10" fill="none" xmlns="http://www.w3.org/2000/svg">
<path d="M5.99977 1.75007H1.60327L2.67677 0.677072C2.72371 0.630128 2.75008 0.56646 2.75008 0.500072C2.75008 0.433684 2.72371 0.370015 2.67677 0.323072C2.62982 0.276128 2.56616 0.249756 2.49977 0.249756C2.43338 0.249756 2.36971 0.276128 2.32277 0.323072L0.822768 1.82307C0.799578 1.84652 0.78108 1.87418 0.768268 1.90457C0.74326 1.96578 0.74326 2.03436 0.768268 2.09557C0.78108 2.12596 0.799578 2.15362 0.822768 2.17707L2.32277 3.67707C2.36971 3.72401 2.43338 3.75039 2.49977 3.75039C2.56616 3.75039 2.62982 3.72401 2.67677 3.67707C2.72371 3.63013 2.75008 3.56646 2.75008 3.50007C2.75008 3.43368 2.72371 3.37001 2.67677 3.32307L1.60327 2.25007H5.99977C6.19868 2.25007 6.38945 2.32909 6.5301 2.46974C6.67075 2.61039 6.74977 2.80116 6.74977 3.00007V5.00007C6.74977 5.06638 6.77611 5.12996 6.82299 5.17685C6.86988 5.22373 6.93346 5.25007 6.99977 5.25007C7.06607 5.25007 7.12966 5.22373 7.17655 5.17685C7.22343 5.12996 7.24977 5.06638 7.24977 5.00007V3.00007C7.24977 2.66855 7.11807 2.35061 6.88365 2.11619C6.64923 1.88177 6.33129 1.75007 5.99977 1.75007Z" fill="white"/>
<path d="M7.231 7.9045C7.21819 7.87411 7.19969 7.84645 7.1765 7.823L5.6765 6.323C5.65326 6.29976 5.62566 6.28132 5.59529 6.26874C5.56492 6.25616 5.53237 6.24968 5.4995 6.24968C5.46663 6.24968 5.43408 6.25616 5.40371 6.26874C5.37334 6.28132 5.34574 6.29976 5.3225 6.323C5.29926 6.34624 5.28082 6.37384 5.26824 6.40421C5.25566 6.43458 5.24918 6.46713 5.24918 6.5C5.24918 6.53287 5.25566 6.56542 5.26824 6.59579C5.28082 6.62616 5.29926 6.65376 5.3225 6.677L6.3965 7.75H2C1.80109 7.75 1.61032 7.67098 1.46967 7.53033C1.32902 7.38968 1.25 7.19891 1.25 7V5C1.25 4.9337 1.22366 4.87011 1.17678 4.82322C1.12989 4.77634 1.0663 4.75 1 4.75C0.933696 4.75 0.870107 4.77634 0.823223 4.82322C0.776339 4.87011 0.75 4.9337 0.75 5V7C0.75 7.33152 0.881696 7.64946 1.11612 7.88388C1.35054 8.1183 1.66848 8.25 2 8.25H6.3965L5.323 9.323C5.27606 9.36994 5.24968 9.43361 5.24968 9.5C5.24968 9.56639 5.27606 9.63006 5.323 9.677C5.36994 9.72394 5.43361 9.75032 5.5 9.75032C5.56639 9.75032 5.63006 9.72394 5.677 9.677L7.177 8.177C7.20019 8.15355 7.21869 8.12589 7.2315 8.0955C7.25635 8.03422 7.25617 7.96565 7.231 7.9045V7.9045Z" fill="white"/>
</svg>
