<svg width="12" height="10" viewBox="0 0 12 10" fill="none" xmlns="http://www.w3.org/2000/svg">
<g clip-path="url(#clip0_178_183)">
<path d="M12 1.29978C11.5504 1.4978 11.074 1.62849 10.5863 1.68763C11.0996 1.38121 11.4841 0.898821 11.6684 0.330164C11.1851 0.616566 10.6565 0.81855 10.1054 0.927449C9.76826 0.566403 9.33045 0.314973 8.84872 0.205767C8.36699 0.0965616 7.86355 0.134618 7.40371 0.315002C6.94387 0.495385 6.54883 0.809773 6.26984 1.21739C5.99084 1.62501 5.84075 2.10706 5.83904 2.60101C5.83885 2.78891 5.85966 2.97624 5.9011 3.15951C4.92488 3.1101 3.96982 2.85681 3.09742 2.41593C2.22502 1.97505 1.45462 1.35637 0.835811 0.599718C0.520742 1.13849 0.424153 1.77753 0.565918 2.38535C0.707682 2.99317 1.07702 3.52354 1.59793 3.86733C1.20705 3.85612 0.8246 3.75103 0.48287 3.56093V3.59196C0.483691 4.15865 0.680837 4.70755 1.04076 5.14526C1.40069 5.58297 1.90116 5.88245 2.45701 5.99274C2.2452 6.04983 2.02674 6.07852 1.80737 6.07806C1.65256 6.07769 1.49809 6.06341 1.34583 6.0354C1.50451 6.52283 1.81144 6.94853 2.22377 7.25308C2.63609 7.55763 3.13323 7.72582 3.64577 7.73417C2.77071 8.41709 1.69176 8.78653 0.581771 8.7833C0.387325 8.78327 0.193055 8.77161 0 8.74839C1.1271 9.46778 2.43664 9.84934 3.77376 9.84794C8.30187 9.84794 10.7783 6.11879 10.7783 2.88414C10.7783 2.77748 10.7783 2.67082 10.7783 2.5661C11.2601 2.22044 11.6765 1.79162 12.0078 1.29978H12Z" fill="white"/>
</g>
<defs>
<clipPath id="clip0_178_183">
<rect width="12" height="9.69619" fill="white" transform="translate(0 0.151855)"/>
</clipPath>
</defs>
</svg>
