<svg width="24" height="20" viewBox="0 0 24 20" fill="none" xmlns="http://www.w3.org/2000/svg">
<g clip-path="url(#clip0_97_2782)">
<path d="M24 2.29604C23.1007 2.69207 22.148 2.95345 21.1726 3.07173C22.1991 2.45888 22.9682 1.49411 23.3368 0.3568C22.3702 0.929604 21.313 1.33357 20.2107 1.55137C19.5365 0.829278 18.6609 0.326419 17.6974 0.108007C16.734 -0.110405 15.7271 -0.0342914 14.8074 0.326476C13.8877 0.687243 13.0977 1.31602 12.5397 2.13126C11.9817 2.9465 11.6815 3.91059 11.6781 4.89849C11.6777 5.27429 11.7193 5.64895 11.8022 6.01549C9.84975 5.91668 7.93964 5.41008 6.19485 4.52833C4.45005 3.64658 2.90924 2.40922 1.67162 0.895908C1.04148 1.97345 0.848306 3.25153 1.13184 4.46717C1.41536 5.68281 2.15404 6.74355 3.19586 7.43114C2.4141 7.40871 1.6492 7.19853 0.96574 6.81834V6.88039C0.967382 8.01377 1.36167 9.11157 2.08153 9.98699C2.80138 10.8624 3.80232 11.4614 4.91403 11.6819C4.4904 11.7961 4.05348 11.8535 3.61474 11.8526C3.30511 11.8519 2.99618 11.8233 2.69166 11.7673C3.00902 12.7421 3.62289 13.5935 4.44754 14.2026C5.27219 14.8117 6.26646 15.1481 7.29153 15.1648C5.54143 16.5307 3.38353 17.2695 1.16354 17.2631C0.77465 17.263 0.38611 17.2397 0 17.1933C2.2542 18.632 4.87329 19.3951 7.54751 19.3924C16.6037 19.3924 21.5566 11.934 21.5566 5.46475C21.5566 5.25143 21.5566 5.03812 21.5566 4.82868C22.5203 4.13736 23.3529 3.27972 24.0155 2.29604H24Z" fill="black"/>
</g>
<defs>
<clipPath id="clip0_97_2782">
<rect width="24" height="19.3924" fill="white"/>
</clipPath>
</defs>
</svg>
